<?xml version="1.0" encoding="UTF-8"?>
<svg version="1.1" xmlns="http://www.w3.org/2000/svg" width="300" height="300">
<path d="M0 0 C1.07371857 -0.00151062 1.07371857 -0.00151062 2.16912842 -0.00305176 C13.27131409 0.00751672 23.86837736 0.62684123 34.6875 3.25 C36.49927734 3.68505859 36.49927734 3.68505859 38.34765625 4.12890625 C57.24612638 9.13082691 75.05525762 17.52637851 90.6875 29.25 C91.7228186 30.02041626 91.7228186 30.02041626 92.77905273 30.80639648 C111.55444 45.05418471 124.85654611 62.55408162 135.6875 83.25 C136.24308594 84.30574219 136.79867188 85.36148438 137.37109375 86.44921875 C142.06569082 95.97254424 144.99283685 106.01484372 147.6875 116.25 C147.96086182 117.24531738 147.96086182 117.24531738 148.23974609 118.26074219 C153.50723008 138.1880796 153.02231531 164.42059213 147.6875 184.25 C147.38948486 185.40266357 147.38948486 185.40266357 147.08544922 186.57861328 C142.37513756 204.55542072 135.46834021 221.07679722 124.6875 236.25 C123.95144531 237.30316406 123.21539062 238.35632813 122.45703125 239.44140625 C111.48751478 254.4165418 97.94269727 266.76177703 82.6875 277.25 C81.45580078 278.11818359 81.45580078 278.11818359 80.19921875 279.00390625 C68.37295104 286.71303635 54.23572338 291.77952904 40.75 295.6875 C39.94780029 295.92210937 39.14560059 296.15671875 38.3190918 296.3984375 C26.01276428 299.77092251 13.65178289 300.63339185 0.9375 300.5625 C0.23717651 300.56034485 -0.46314697 300.5581897 -1.18469238 300.55596924 C-12.12931524 300.50207786 -22.67317598 299.97847181 -33.3125 297.25 C-34.49295898 296.95198486 -34.49295898 296.95198486 -35.69726562 296.64794922 C-53.59999884 291.99086643 -70.25848509 285.06925125 -85.3125 274.25 C-85.87356445 273.84974609 -86.43462891 273.44949219 -87.01269531 273.03710938 C-103.25740539 261.28167815 -116.50763722 247.10558594 -127.3125 230.25 C-127.98796875 229.21359375 -128.6634375 228.1771875 -129.359375 227.109375 C-136.38069756 215.73856059 -140.90495303 203.27965902 -144.625 190.5 C-144.98863647 189.26068726 -144.98863647 189.26068726 -145.35961914 187.99633789 C-148.8187036 175.58102273 -149.69119057 163.31796346 -149.625 150.5 C-149.62284485 149.74821472 -149.6206897 148.99642944 -149.61846924 148.22186279 C-149.56806936 137.26935663 -149.16044686 126.88377877 -146.3125 116.25 C-146.12445801 115.49750977 -145.93641602 114.74501953 -145.74267578 113.96972656 C-141.29066245 96.33876208 -133.96490021 79.06168879 -123.3125 64.25 C-122.64605469 63.28964844 -121.97960937 62.32929687 -121.29296875 61.33984375 C-107.33071669 42.14472039 -89.58433134 26.76806619 -68.3125 16.25 C-67.17554687 15.67636719 -66.03859375 15.10273438 -64.8671875 14.51171875 C-44.41357445 4.42426414 -22.76108703 0.02211393 0 0 Z " fill="#336697" transform="translate(149.3125,-0.25)"/>
<path d="M0 0 C1.27230469 0.00902344 2.54460937 0.01804687 3.85546875 0.02734375 C5.31919922 0.04474609 5.31919922 0.04474609 6.8125 0.0625 C11.17052608 8.77855216 10.49093068 18.61377808 9.36328125 28.09765625 C4.54862994 61.3279185 4.54862994 61.3279185 10.8125 93.0625 C20.70642436 80.43080478 15.30053927 58.31605461 14.3125 43.375 C14.09613928 40.08723665 13.8811959 36.79940982 13.67053223 33.51127625 C13.54038097 31.4807926 13.40707145 29.45050775 13.26989746 27.42048645 C12.96444147 22.66540632 12.73662173 17.91349515 12.64648438 13.14916992 C12.62920288 12.28458664 12.61192139 11.42000336 12.59411621 10.52922058 C12.95787444 6.42044534 14.69996523 3.56138572 16.8125 0.0625 C27.35145281 -0.65879715 35.60807689 1.57914766 43.92578125 8.2265625 C49.87335235 14.01405404 54.62496759 20.99912491 54.9375 29.4375 C54.89625 30.30375 54.855 31.17 54.8125 32.0625 C55.30878906 31.59199219 55.80507812 31.12148437 56.31640625 30.63671875 C62.09675982 25.33897534 66.68149075 21.82701932 74.8125 22.0625 C74.97854736 22.86357178 75.14459473 23.66464355 75.31567383 24.48999023 C75.94323178 27.50457577 76.5756369 30.51809484 77.21118164 33.53100586 C77.61645817 35.45935703 78.01629602 37.38884868 78.41601562 39.31835938 C79.84547619 46.07741367 81.45827573 52.56540659 83.8125 59.0625 C84.07804688 57.928125 84.34359375 56.79375 84.6171875 55.625 C84.97392786 54.10415952 85.33070042 52.58332659 85.6875 51.0625 C85.86152344 50.31871094 86.03554687 49.57492188 86.21484375 48.80859375 C87.07615515 45.14004519 87.96078135 41.48274268 88.91015625 37.8359375 C89.65432265 34.72396891 90.13937414 31.8659425 90.375 28.6875 C90.71031022 24.26687956 90.71031022 24.26687956 91.8125 22.0625 C94.4525 22.0625 97.0925 22.0625 99.8125 22.0625 C100.1425 23.0525 100.4725 24.0425 100.8125 25.0625 C101.575625 25.35125 102.33875 25.64 103.125 25.9375 C107.29079165 27.68131976 108.93349707 30.22935423 110.86297607 34.25325012 C114.05948641 42.15394171 114.33741042 49.24732732 114.203125 57.69921875 C114.19564438 59.07354398 114.18996008 60.44788004 114.18597412 61.82221985 C114.17086045 65.40134268 114.13170709 68.97979351 114.0871582 72.55865479 C114.04589285 76.22585808 114.02767629 79.89317552 114.0078125 83.56054688 C113.96732729 90.72845381 113.88900372 97.89452687 113.8125 105.0625 C95.0025 105.0625 76.1925 105.0625 56.8125 105.0625 C56.8125 108.6925 56.8125 112.3225 56.8125 116.0625 C28.1025 116.0625 -0.6075 116.0625 -30.1875 116.0625 C-30.1875 113.4225 -30.1875 110.7825 -30.1875 108.0625 C-48.9975 108.0625 -67.8075 108.0625 -87.1875 108.0625 C-87.27 99.379375 -87.3525 90.69625 -87.4375 81.75 C-87.47391602 79.03096436 -87.51033203 76.31192871 -87.54785156 73.51049805 C-87.55954847 71.32341295 -87.56973791 69.13631905 -87.578125 66.94921875 C-87.6088208 65.28469666 -87.6088208 65.28469666 -87.64013672 63.58654785 C-87.64396794 54.90788485 -86.2172768 46.57992775 -80.75 39.5625 C-77.39109014 36.28551477 -74.97940009 34.0625 -70.1875 34.0625 C-69.73375 35.01125 -69.28 35.96 -68.8125 36.9375 C-67.38511746 40.06563679 -67.38511746 40.06563679 -65.1875 42.0625 C-59.76895482 42.75082332 -54.80334562 42.98131418 -50 40.25 C-48.00095992 38.10583759 -48.00095992 38.10583759 -47.1875 35.0625 C-42.72806127 35.33276901 -40.26028269 37.29184806 -36.93359375 40.00390625 C-34.37106456 43.02505364 -32.84410697 46.48382136 -31.1875 50.0625 C-31.15309814 49.39831055 -31.11869629 48.73412109 -31.08325195 48.04980469 C-29.69326337 23.19810182 -29.69326337 23.19810182 -24.1875 14.0625 C-23.73246094 13.30066406 -23.27742188 12.53882813 -22.80859375 11.75390625 C-17.17652162 3.3902024 -9.94201531 -0.09121115 0 0 Z " fill="#FBFCFD" transform="translate(138.1875,122.9375)"/>
<path d="M0 0 C7.81488204 5.52919231 13.35192082 12.099333 15.60546875 21.53515625 C17.30165176 32.1321016 14.83883596 41.3415705 8.58984375 50.03515625 C3.31940978 56.54873926 -4.1469768 60.3823256 -12 63 C-22.33451327 63.8809749 -30.38502505 61.76043694 -38.859375 55.8046875 C-46.62681188 49.25622794 -51.21013723 41.05660022 -52.1953125 31.0078125 C-52.65850031 22.33076078 -49.48506381 13.70396688 -44 7 C-31.70509873 -5.7150004 -15.62105584 -8.91441587 0 0 Z " fill="#FAFBFC" transform="translate(167,53)"/>
<path d="M0 0 C6.20839748 4.58522709 10.2404851 9.57907993 11.53125 17.3046875 C11.92956925 25.76897148 10.04384702 32.59128077 4.35546875 38.96875 C-1.41187969 44.28043886 -7.53069399 46.76317652 -15.3828125 46.46484375 C-23.21439998 45.44790627 -28.74209212 42.41226861 -33.59375 36.1875 C-38.04069256 29.66531757 -38.81119632 23.83707774 -38 16.125 C-35.91308777 8.88218695 -30.90922825 2.55525557 -24.4375 -1.375 C-16.45765095 -4.79272605 -7.46036232 -4.30522955 0 0 Z " fill="#F9FAFC" transform="translate(235,94.875)"/>
<path d="M0 0 C5.44735048 2.80677041 11.0668773 6.97148868 13.12890625 12.98046875 C14.31521522 19.98351845 14.50729276 27.12809002 10.82421875 33.375 C7.06499335 38.31380639 2.67057211 41.91355204 -3.5078125 43.125 C-9.91373738 43.91358772 -14.45053933 43.41862751 -19.7578125 39.609375 C-25.61293339 34.64297782 -29.14312388 28.95423048 -29.8828125 21.1875 C-29.50971425 14.01572252 -27.40639805 9.6121569 -22.0703125 4.75 C-15.36528485 -0.94530267 -8.65269524 -3.01900893 0 0 Z " fill="#F8FAFB" transform="translate(85.5078125,109.875)"/>
<path d="M0 0 C0.99 0.33 1.98 0.66 3 1 C4.32084011 14.67210027 5.32531983 28.35132466 6.125 42.0625 C6.16929138 42.79908844 6.21358276 43.53567688 6.25921631 44.29458618 C7.97936293 73.10764358 7.97936293 73.10764358 3 84 C2.01 84 1.02 84 0 84 C-4.49097455 74.71731599 -4.52115043 66.05414231 -4 56 C-3.94005859 54.84145508 -3.88011719 53.68291016 -3.81835938 52.48925781 C-2.86887454 34.96815679 -1.56547143 17.47690293 0 0 Z " fill="#43709C" transform="translate(148,132)"/>
<path d="M0 0 C0.33 0 0.66 0 1 0 C0.67 10.23 0.34 20.46 0 31 C-0.66 31.33 -1.32 31.66 -2 32 C-3.11212405 28.66362786 -2.96883482 26.61414247 -2.6953125 23.125 C-2.60636719 21.97515625 -2.51742187 20.8253125 -2.42578125 19.640625 C-2.32652344 18.43921875 -2.22726563 17.2378125 -2.125 16 C-2.03347656 14.79859375 -1.94195312 13.5971875 -1.84765625 12.359375 C-1.13489507 3.4046852 -1.13489507 3.4046852 0 0 Z " fill="#C4D4E1" transform="translate(110,146)"/>
<path d="M0 0 C-1.5830577 4.2742558 -4.50568404 6.26531794 -8 9 C-8 6 -8 6 -6.7578125 4.39453125 C-5.94957031 3.61142578 -5.94957031 3.61142578 -5.125 2.8125 C-4.59132813 2.28269531 -4.05765625 1.75289062 -3.5078125 1.20703125 C-2 0 -2 0 0 0 Z " fill="#D6E3ED" transform="translate(130,55)"/>
<path d="M0 0 C-1.49097658 3.7952131 -3.75700849 5.61042731 -7 8 C-7 5 -7 5 -4.625 2.3125 C-2 0 -2 0 0 0 Z " fill="#DDE9F1" transform="translate(67,113)"/>
<path d="M0 0 C0.66 0 1.32 0 2 0 C0.70700306 2.88437779 -0.65941363 4.87219421 -3 7 C-3.66 6.67 -4.32 6.34 -5 6 C-3.38405168 3.95880212 -1.7143618 1.95927063 0 0 Z " fill="#DAE7F0" transform="translate(121,128)"/>
<path d="M0 0 C0.66 0 1.32 0 2 0 C2 0.99 2 1.98 2 3 C2.66 3 3.32 3 4 3 C3.67 4.98 3.34 6.96 3 9 C1.35173889 6.03312999 0.55728913 3.34373475 0 0 Z " fill="#4F7599" transform="translate(219,175)"/>
</svg>
